<svg xmlns="http://www.w3.org/2000/svg" viewBox="0 0 1280 320" width="1280" height="320">
  <defs>
    <linearGradient id="bg-light" x1="0%" y1="0%" x2="100%" y2="100%">
      <stop offset="0%" style="stop-color:#f8f9fa;stop-opacity:1" />
      <stop offset="100%" style="stop-color:#e9ecef;stop-opacity:1" />
    </linearGradient>
  </defs>
  <rect width="1280" height="320" fill="url(#bg-light)" rx="12" />
  <g opacity="0.08">
    <circle cx="80" cy="60" r="4" fill="#495057" />
    <circle cx="120" cy="60" r="4" fill="#495057" />
    <circle cx="160" cy="60" r="4" fill="#495057" />
    <circle cx="200" cy="60" r="4" fill="#495057" />
    <circle cx="240" cy="60" r="4" fill="#495057" />
    <circle cx="80" cy="100" r="4" fill="#495057" />
    <circle cx="120" cy="100" r="4" fill="#495057" />
    <circle cx="160" cy="100" r="4" fill="#495057" />
    <circle cx="200" cy="100" r="4" fill="#495057" />
    <circle cx="240" cy="100" r="4" fill="#495057" />
    <circle cx="80" cy="140" r="4" fill="#495057" />
    <circle cx="120" cy="140" r="4" fill="#495057" />
    <circle cx="160" cy="140" r="4" fill="#495057" />
    <circle cx="200" cy="140" r="4" fill="#495057" />
    <circle cx="240" cy="140" r="4" fill="#495057" />
    <circle cx="1040" cy="180" r="4" fill="#495057" />
    <circle cx="1080" cy="180" r="4" fill="#495057" />
    <circle cx="1120" cy="180" r="4" fill="#495057" />
    <circle cx="1160" cy="180" r="4" fill="#495057" />
    <circle cx="1200" cy="180" r="4" fill="#495057" />
    <circle cx="1040" cy="220" r="4" fill="#495057" />
    <circle cx="1080" cy="220" r="4" fill="#495057" />
    <circle cx="1120" cy="220" r="4" fill="#495057" />
    <circle cx="1160" cy="220" r="4" fill="#495057" />
    <circle cx="1200" cy="220" r="4" fill="#495057" />
    <circle cx="1040" cy="260" r="4" fill="#495057" />
    <circle cx="1080" cy="260" r="4" fill="#495057" />
    <circle cx="1120" cy="260" r="4" fill="#495057" />
    <circle cx="1160" cy="260" r="4" fill="#495057" />
    <circle cx="1200" cy="260" r="4" fill="#495057" />
  </g>
  <text x="640" y="155" text-anchor="middle" style="font-family:'Segoe UI',Roboto,Helvetica,Arial,sans-serif;font-size:48px;font-weight:700;fill:#212529;letter-spacing:-0.5px">Awesome YOUR_TOPIC</text>
  <text x="640" y="195" text-anchor="middle" style="font-family:'Segoe UI',Roboto,Helvetica,Arial,sans-serif;font-size:20px;font-weight:400;fill:#6c757d;letter-spacing:0.5px">A curated collection of awesome resources</text>
  <line x1="560" y1="215" x2="720" y2="215" stroke="#dee2e6" stroke-width="2" stroke-linecap="round" />
</svg>
